<svg width="195px" height="84px" viewBox="0 0 195 84" version="1.1" xmlns="http://www.w3.org/2000/svg" xmlns:xlink="http://www.w3.org/1999/xlink">
                            <title>Branding</title>
                            <g id="Symbols" stroke="none" stroke-width="1" fill="none" fill-rule="evenodd">
                                <g id="Header" transform="translate(-30.000000, -15.000000)">
                                    <g id="Branding" transform="translate(30.000000, 15.000000)">
                                        <path d="M24.7437774,5.41212343 L23.8594784,5.74284653 L23.5287553,5.96332859 L23.0866058,6.18618143 L22.8661237,6.51690453 L22.6456416,6.95786865 L22.7546973,7.06929507 L22.8661237,7.06929507 L23.0866058,6.84762762 L23.3082732,6.73738659 L23.8594784,6.62714556 L24.8540184,6.73738659 L25.2949826,6.95786865 L25.7383175,7.28977714 L26.0690406,7.62168562 L26.4009491,8.06383513 L26.4009491,9.60958036 L26.1792816,10.1619709 L25.406409,10.8246025 L24.4118689,11.4872341 L23.4173289,11.9293836 L22.4227888,12.2601067 L20.2155974,12.8124972 L18.0060352,13.3660732 L17.3434036,13.6967962 L16.9000687,14.0275193 L15.9055287,14.9118184 L15.1338414,15.905173 L14.4712099,16.8997131 L13.8073929,17.8942532 L13.0345203,18.8887932 L12.5923708,19.3297574 L12.1502213,19.6616658 L11.5990161,19.9923889 L10.9351991,20.3242974 L8.6165813,20.986929 L6.29677808,21.5393195 L3.86673383,21.9814691 L2.6517117,22.2019511 L1.32526316,22.2019511 L0.883113642,22.6441006 L0.442149515,23.0850648 L0.221667451,23.5272143 L1.22904689e-13,24.0796048 L1.22904689e-13,26.5096491 L0.442149515,27.6156156 L0.774057998,28.1668207 L1.21502213,28.7192113 L1.65717164,29.2727872 L2.09932116,29.7137513 L2.76076735,30.0444744 L3.42458431,30.2649565 L3.09267583,28.9396933 L2.87219377,27.3939481 L2.87219377,26.7313165 L2.98362019,25.9572585 L3.20291686,25.294627 L3.53482534,24.6319954 L4.30769795,24.3012723 L5.08175595,24.0796048 L5.85462856,23.9705492 L6.73892759,23.8591228 L8.39491385,23.7476963 L9.27921288,23.6386407 L10.0520855,23.5272143 L10.8261435,23.5272143 L11.4875897,23.3067322 L12.8128528,22.9760091 L14.027875,22.3121922 L15.1338414,21.5393195 L16.0181405,20.6550205 L16.9000687,19.6616658 L17.5638857,18.5568847 L18.1162762,17.4521037 L18.5584258,16.8997131 L18.9993899,16.458749 L19.4415394,16.0165995 L19.9939299,15.684691 L21.2089521,15.1323004 L22.5342152,14.6901509 L23.7492373,14.3582424 L25.0745005,13.9172783 L26.2895226,13.2546467 L26.8419132,12.9227382 L27.3943037,12.4805887 L27.8364532,11.9293836 L28.2786028,11.376993 L28.6105112,10.8246025 L28.9412343,10.1619709 L29.0514754,9.49933932 L29.1629018,8.83670774 L29.1629018,8.06383513 L28.9412343,7.40001817 L28.8309933,6.95786865 L28.4990848,6.62714556 L28.1671763,6.18618143 L27.7262122,5.96332859 L26.7316721,5.52354985 L25.7383175,5.30069701 L24.7437774,5.41212343 Z M42.9702947,12.2601067 L41.5336051,12.4805887 L40.0981009,12.8124972 L38.7716524,13.3660732 L37.5566302,14.1389458 L36.4530345,15.0220594 L35.4584945,16.0165995 L35.236827,16.5678046 L35.236827,16.7894721 L35.4584945,17.0111395 L36.2313671,16.5678046 L37.0054251,16.1268405 L37.8885387,15.794932 L38.6614113,15.57445 L39.5457104,15.3527825 L40.4300094,15.2437269 L42.3064777,15.2437269 L44.1841314,15.4642089 L45.9515441,15.905173 L47.7189568,16.458749 L49.3761284,17.1213806 L50.5911505,17.8942532 L51.9175991,18.6671258 L53.3531033,19.2195163 L54.7897928,19.6616658 L56.3355381,19.9923889 L57.8824687,20.10263 L59.4282139,20.10263 L61.0853855,19.7719069 L61.7468317,19.5514248 L62.5220751,19.1092753 L62.8527982,18.8887932 L63.0732803,18.6671258 L63.1847067,18.3364027 L63.2937623,17.8942532 L62.8527982,18.1147352 L62.4106487,18.2261617 L61.4161086,18.3364027 L60.3125129,18.4454583 L59.3179729,18.3364027 L58.3234328,18.1147352 L56.6674465,17.5623447 L55.230757,16.7894721 L52.2483222,15.1323004 L50.7013916,14.2491868 L49.2658874,13.4751288 L47.6099011,12.8124972 L45.9515441,12.3715331 L44.4057989,12.1498656 L42.9702947,12.2601067 Z M66.9400141,18.5568847 L67.0502551,19.4399984 L67.1604962,20.3242974 L67.3809782,21.2074111 L67.7128867,22.0917101 L68.3755183,23.6386407 L68.9279088,24.4115133 L69.3700583,25.1843859 L70.0326899,26.068685 L70.8055625,26.7313165 L71.5796205,27.2837071 L72.4627342,27.8349122 L74.3403879,28.6089702 L76.329468,29.3818428 L78.2071217,30.1559008 L79.2016618,30.596865 L80.0847754,31.1504409 L80.857648,31.7016461 L81.6305206,32.365463 L82.2943376,33.1371503 L82.8467281,34.0214493 L83.0672102,34.0214493 L83.0672102,33.1371503 L82.9569692,32.365463 L82.7364871,31.7016461 L82.5148197,30.9287735 L82.1829112,30.2649565 L81.7407617,29.6035103 L80.747407,28.2782471 L79.2016618,27.2837071 L77.5444901,26.399408 L74.1199058,24.7422364 L72.4627342,23.8591228 L70.9158036,22.8645827 L69.5905404,21.760987 L68.9279088,21.0983554 L68.3755183,20.3242974 L68.0436098,19.8833333 L67.8231277,19.3297574 L67.4924046,18.7773668 L67.3809782,18.5568847 L67.0502551,18.3364027 L66.9400141,18.5568847 Z M27.1738217,20.4345385 L26.4009491,20.6550205 L25.6268911,20.7664469 L24.7437774,20.876688 L23.8594784,21.0983554 L22.0932511,21.4290785 L20.4360795,21.8700426 L20.5451351,22.9760091 L20.6565615,23.4169732 L20.8770436,23.6386407 L21.098711,23.8591228 L21.4306195,24.1898459 L21.8715836,24.4115133 L22.8661237,24.4115133 L23.8594784,23.5272143 L24.8540184,22.8645827 L26.8419132,21.5393195 L27.0635806,21.3176521 L27.3943037,21.0983554 L27.6159712,20.876688 L27.7262122,20.6550205 L27.6159712,20.5447795 L27.5057301,20.4345385 L27.1738217,20.4345385 Z M42.8588683,24.9627185 L41.9757546,25.1843859 L41.092641,25.4060534 L40.318583,25.8482029 L39.6559514,26.289167 L39.1035609,26.8403722 L39.3240429,26.9517986 L39.5457104,26.9517986 L40.0981009,26.8403722 L40.7607325,26.7313165 L41.313123,26.6198901 L42.3064777,26.8403722 L43.1907767,27.0620396 L44.957004,27.7258566 L46.6153611,28.4975438 L48.2725327,29.3818428 L49.8194633,30.3763829 L51.4742642,31.1504409 L53.2428622,31.9221281 L55.0102749,32.5859451 L56.1138706,32.8064272 L57.2186517,33.0280946 L58.4336738,33.0280946 L59.5396403,32.9166682 L60.643236,32.6961861 L61.7468317,32.365463 L62.7413718,32.0335545 L63.7359118,31.481164 L64.0678203,31.0390145 L64.5099698,30.707106 L64.8406929,30.3763829 L64.9521194,30.1559008 L64.8406929,29.9342334 L64.2883024,30.2649565 L63.6256708,30.4878093 L62.4106487,30.8185324 L61.0853855,30.9287735 L59.7601224,30.8185324 L58.4336738,30.596865 L57.1084107,30.2649565 L55.8933885,29.8239924 L54.7897928,29.2727872 L52.4688042,28.2782471 L50.1501864,27.0620396 L47.9406242,25.9572585 L46.7256021,25.5162944 L45.5093946,25.0741449 L44.6262809,24.9627185 L42.8588683,24.9627185 Z M8.17443178,27.9463387 L8.06419075,28.7192113 L7.62204124,29.4920839 L7.07083608,30.1559008 L6.40701911,30.4878093 L6.07629601,30.707106 L5.85462856,30.9287735 L6.62868656,30.9287735 L7.40155917,30.8185324 L8.06419075,30.707106 L8.72682233,30.3763829 L10.0520855,29.6035103 L11.1568666,28.6089702 L11.1568666,28.0565797 L9.72136239,27.6156156 L9.05754542,27.2837071 L8.28467281,27.173466 L8.17443178,27.9463387 Z M36.2313671,27.3939481 L36.010885,27.9463387 L35.6789765,28.3873028 L35.236827,28.8294523 L34.7946775,29.2727872 L33.6898964,29.9342334 L32.5863007,30.3763829 L31.3712786,30.9287735 L30.2664975,31.481164 L29.1629018,32.2540366 L28.7195669,32.6961861 L28.2786028,33.1371503 L27.9478797,34.0214493 L27.6159712,34.7943219 L27.5057301,35.2364714 L27.5057301,35.6786209 L27.6159712,36.2298261 L27.7262122,36.673161 L28.2786028,36.673161 L28.7195669,36.1207704 L29.2719574,35.5671945 L29.8255334,35.014804 L30.4881649,34.5738398 L31.9236691,33.8009672 L33.3591733,32.9166682 L34.7946775,32.1426102 L35.3482534,31.591405 L35.900644,31.1504409 L36.3427935,30.4878093 L36.6735166,29.8239924 L36.7837576,29.0511197 L36.8939987,28.1668207 L36.7837576,27.9463387 L36.7837576,27.6156156 L36.5620902,27.3939481 L36.2313671,27.3939481 Z M4.08721589,31.7016461 L3.86673383,31.8118871 L3.7564928,32.0335545 L3.31434328,33.1371503 L2.98362019,34.4635988 L2.76076735,35.788862 L2.87219377,37.1141251 L3.09267583,38.4393883 L3.53482534,39.7658368 L3.86673383,40.317042 L4.30769795,40.8694325 L4.75103286,41.4230085 L5.19318237,41.8639726 L4.75103286,42.6368452 L4.41912437,43.4097178 L4.30769795,44.2940168 L4.19745692,45.0680748 L4.41912437,46.8343021 L4.63842105,47.6083601 L4.97032953,48.3812327 L5.41247905,48.9336233 L5.9648696,49.3757728 L6.51726014,49.8179223 L7.07083608,50.1486454 L7.73228227,50.3703128 L8.39491385,50.5896095 L9.83160342,50.921518 L10.2725676,50.5896095 L9.27921288,50.1486454 L8.50634027,49.5962548 L7.8425233,48.8233822 L7.29131814,48.0493242 L7.29131814,45.9511885 L7.51061482,45.2885569 L7.73228227,44.6247399 L8.06419075,43.9621083 L8.39491385,43.3006622 L8.94848978,42.7470862 L9.83160342,42.3061221 L10.7147171,41.8639726 L11.7092571,41.6434905 L12.7037972,41.4230085 L14.801933,41.4230085 L15.796473,41.6434905 L16.7898277,41.9742136 L17.2319772,42.0844546 L17.6741267,42.3061221 L18.4469993,42.7470862 L19.3312984,43.0789947 L19.7734479,43.1904211 L20.324653,43.3006622 L20.7679879,42.4163631 L21.098711,41.5320641 L21.6511016,39.8760778 L22.0932511,38.9917788 L22.4227888,38.2189062 L22.9763647,37.4448482 L23.5287553,36.673161 L23.6389963,36.4514935 L23.6389963,36.3412525 L23.5287553,36.1207704 L23.1968468,36.009344 L22.8661237,35.899103 L20.8770436,36.1207704 L18.7777224,36.3412525 L16.9000687,36.673161 L14.912174,37.2243661 L13.0345203,37.8869977 L11.2671076,38.5508147 L9.49969494,39.4339283 L7.8425233,40.317042 L6.84916862,39.5453548 L6.07629601,38.5508147 L5.52390547,37.5562746 L5.08175595,36.5617346 L4.75103286,35.4569535 L4.52936541,34.2431167 L4.41912437,33.0280946 L4.41912437,31.8118871 L4.30769795,31.7016461 L4.08721589,31.7016461 Z M27.1738217,41.0911 L26.7316721,42.3061221 L25.9587995,43.4097178 L25.1859269,44.4042579 L24.4118689,44.9566484 L23.5287553,45.3987979 L22.5342152,45.61928 L21.6511016,45.8397621 L19.6620215,46.0626149 L18.6674814,46.1716705 L17.7843678,46.393338 L16.7898277,46.7240611 L15.796473,47.1662106 L14.801933,47.7174158 L13.2561877,49.0438643 L12.1502213,50.811277 L11.9297392,51.695576 L11.9297392,52.9105981 L12.0411656,53.4618033 L12.1502213,53.6834707 L12.3730741,53.9039528 L12.5923708,53.7937118 L12.7037972,53.0208392 L13.0345203,52.3582076 L13.4766698,51.695576 L14.1404868,51.1431855 L15.4645645,50.4805539 L16.9000687,49.9269779 L18.4469993,49.5962548 L19.9939299,49.4860138 L19.4415394,50.2588864 L18.9993899,51.0329444 L18.6674814,51.8046316 L18.4469993,52.5786896 L18.2265173,54.2358613 L18.1162762,56.0044593 L18.0060352,57.7706866 L18.0060352,59.5369139 L17.7843678,61.305512 L17.5638857,62.0783846 L17.2319772,62.8524426 L16.9000687,63.4036477 L16.4591046,63.8457973 L16.0181405,64.2879468 L15.5748056,64.7300963 L16.0181405,64.949393 L16.2386225,64.949393 L16.5693456,64.8391519 L17.3434036,64.3993732 L18.1162762,63.8457973 L18.7777224,63.2945921 L19.3312984,62.6307751 L19.7734479,61.9681436 L20.2155974,61.305512 L20.8770436,59.7597668 L21.4306195,58.2128361 L21.7613426,56.5544791 L22.4227888,53.3527476 L22.6456416,52.4684486 L22.9763647,51.5841496 L23.8594784,50.0384044 L24.8540184,48.3812327 L25.9587995,46.8343021 L26.8419132,45.2885569 L27.2840627,44.4042579 L27.5057301,43.6325706 L27.7262122,42.7470862 L27.8364532,41.8639726 L27.7262122,40.8694325 L27.6159712,39.8760778 L27.1738217,41.0911 Z" id="Combined-Shape" fill="#0D2240"></path>
                                        <path d="M114.439674,37.9975944 L108.472434,64.2883024 L108.363378,64.7304519 L108.141711,65.7226212 L108.030284,66.7183466 L108.030284,67.6002749 L108.141711,68.4857593 L108.363378,69.1472055 L108.58386,69.9200781 L109.02601,70.473654 L109.468159,71.1362856 L110.019364,71.5784351 L110.57294,72.0205847 L112.118686,72.6820308 L113.000614,72.9025129 L113.996339,73.1253658 L114.989694,73.2356068 L117.420924,73.2356068 L118.635946,73.1253658 L119.740727,72.9025129 L120.734081,72.5717898 L121.618381,72.2410667 L122.50268,71.9103436 L123.384608,71.3555823 L124.04961,70.8043771 L124.712242,70.142931 L125.373688,69.3700583 L125.927264,68.4857593 L126.478469,67.6002749 L126.920619,66.6081056 L127.362768,65.5033245 L128.024214,63.0720949 L134.431233,37.9975944 L148.130756,37.9975944 L141.389458,64.3997288 L140.839438,66.7183466 L140.06538,68.8164824 L139.181081,70.8043771 L138.077485,72.6820308 L136.862463,74.4494435 L135.425773,75.9963741 L133.987898,77.4306929 L132.222857,78.6469004 L130.455444,79.7516815 L128.467549,80.7462216 L126.367043,81.6293352 L124.158666,82.2931522 L121.729807,82.8443574 L119.187151,83.1774512 L116.536625,83.3979333 L113.665616,83.5081743 L110.903663,83.3979333 L108.363378,83.1774512 L105.933334,82.8443574 L103.834013,82.2931522 L101.844933,81.6293352 L100.078705,80.857648 L98.5317747,79.973349 L97.2065116,78.8685679 L96.1005451,77.6535458 L95.2174315,76.2180416 L94.4445588,74.7825374 L94.0024093,73.1253658 L93.6716862,71.3555823 L93.6716862,69.3700583 L93.7819273,67.2695518 L94.1138358,65.061175 L94.2228914,64.6190255 L100.409428,37.9975944 L114.439674,37.9975944 Z M175.634115,37.9975944 L178.174401,38.1078354 L180.604445,38.2192618 L182.814007,38.5499849 L184.803087,38.880708 L186.569314,39.4342839 L188.226486,39.9866745 L189.663176,40.7583617 L190.878198,41.5324197 L191.870367,42.5269598 L192.755852,43.5214998 L193.418483,44.736522 L193.859447,45.9515441 L194.079929,47.3870483 L194.191356,48.8237379 L194.079929,50.4797241 L193.748021,52.1368957 L193.307057,53.7940674 L192.644425,55.3398126 L191.870367,56.7776876 L190.986068,58.1017653 L189.882472,59.4282139 L188.669821,60.6420506 L187.342187,61.7456463 L185.907868,62.7413718 L184.249511,63.6256708 L182.591154,64.5075991 L180.713501,65.1726014 L178.835847,65.7226212 L176.847952,66.1647707 L174.749816,66.4966792 L172.54144,66.7183466 L170.221636,66.8274023 L160.721941,66.8274023 L156.52567,82.8443574 L141.389458,82.8443574 L152.766806,37.9975944 L175.634115,37.9975944 Z M66.8297731,37.9975944 L70.3645984,38.1078354 L73.6777563,38.3283175 L76.6613765,38.7716524 L79.4221438,39.3228575 L81.9636145,40.0969155 L84.1719913,41.0902702 L85.165346,41.5324197 L86.159886,42.0848103 L87.0429997,42.7474418 L87.8170577,43.4100734 L88.5899303,44.072705 L89.2525619,44.736522 L89.9151934,45.5093946 L90.467584,46.3925082 L90.9097335,47.2768072 L91.351883,48.1611063 L91.6826061,49.0442199 L92.0145146,50.03876 L92.236182,51.0321147 L92.4566641,53.2404915 L92.4566641,54.3464579 L92.3452377,56.7776876 L91.9042736,59.3167875 L91.5723651,60.8637181 L91.1302156,62.4106487 L90.6892514,63.8449675 L90.1368609,65.1726014 L89.4742293,66.6081056 L88.8115977,67.8231277 L88.0375397,69.1472055 L87.2646671,70.363413 L86.4917945,71.4670087 L85.4960691,72.5717898 L84.6141408,73.6753855 L83.6184154,74.6722964 L82.5148197,75.5530392 L81.4100386,76.4373383 L80.1950164,77.3216373 L78.9799943,78.0956953 L76.5499501,79.4209584 L74.1199058,80.4154985 L71.4693795,81.2997975 L68.8176678,81.8510027 L66.0569004,82.4045786 L63.0732803,82.6238753 L59.8703634,82.8443574 L37.4463892,82.8443574 L47.7189568,37.9975944 L66.8297731,37.9975944 Z M65.0623604,47.1665662 L59.2089172,47.1665662 L53.1326212,73.3446624 L59.2089172,73.3446624 L61.0853855,73.2356068 L62.8527982,73.0139393 L64.5099698,72.7946427 L66.1659561,72.3513078 L67.7128867,71.9103436 L69.1495763,71.3555823 L70.473654,70.5850805 L71.6898616,69.8086517 L72.9048837,68.9267234 L73.8994237,68.0424244 L74.8927784,66.9388287 L75.7770775,65.8340476 L77.1023406,63.4040034 L77.5444901,61.9673138 L77.9854543,60.532995 L78.2071217,58.9860644 L78.3161773,57.4391338 L78.3161773,56.1126852 L78.0968807,54.7874221 L77.8752132,53.5723999 L77.4330637,52.4688042 L76.7704321,51.4742642 L75.9975595,50.5899651 L75.1144459,49.8170925 L74.1199058,49.154461 L73.0151247,48.4918294 L71.6898616,48.0496799 L70.253172,47.7177714 L68.5960003,47.3870483 L66.9400141,47.2768072 L65.0623604,47.1665662 Z M40.2083419,31.0393701 L40.4300094,31.1496111 L41.2016966,32.5863007 L41.6438461,34.4639544 L41.7552726,35.3470681 L41.8655136,36.4506638 L41.7552726,37.4452038 L41.7552726,38.4397439 L41.5336051,39.3228575 L41.313123,40.3173976 L40.2083419,42.5269598 L38.9921344,44.736522 L36.5620902,49.154461 L35.5687355,51.3628378 L34.6844365,53.6838264 L34.2434724,54.7874221 L34.0218049,56.0036296 L33.8013228,57.2174663 L33.6898964,58.4324884 L34.0218049,60.4203832 L34.2434724,60.7522917 L34.3537134,60.9751445 L34.3537134,61.0830148 L34.1332313,61.3058676 L33.6898964,61.3058676 L32.9170238,60.0896601 L32.3658186,58.7643969 L32.0350956,57.4391338 L31.9236691,56.0036296 L31.8122427,54.677181 L31.9236691,53.2404915 L32.1441512,50.3706685 L32.4760597,49.154461 L32.9170238,47.9394388 L33.5808408,46.7232313 L34.2434724,45.6196356 L35.6789765,43.4100734 L37.2259071,41.0902702 L37.7782977,39.9866745 L38.4409293,38.7716524 L38.8830788,37.5566302 L39.3240429,36.3416081 L39.6559514,35.0151596 L39.7661924,33.8013228 L39.7661924,32.4748743 L39.5457104,31.1496111 L39.6559514,31.0393701 L40.2083419,31.0393701 Z M171.436658,45.9515441 L165.58203,45.9515441 L162.377928,58.7643969 L168.010889,58.7643969 L170.330692,58.6553413 L172.318587,58.3234328 L174.087185,57.8812833 L174.970298,57.5505602 L175.634115,57.1084107 L176.408173,56.6650758 L176.958193,56.2241116 L178.062974,55.1193305 L178.394883,54.456699 L178.835847,53.7940674 L179.0587,53.1314358 L179.279182,52.3573778 L179.389423,51.5845052 L179.498478,50.9218736 L179.498478,50.1478156 L179.389423,49.5966105 L179.167755,49.0442199 L178.835847,48.4918294 L178.505124,47.9394388 L178.062974,47.6075303 L177.511769,47.1665662 L176.847952,46.8346577 L176.185321,46.6141757 L175.412448,46.3925082 L173.534794,46.0617851 L171.436658,45.9515441 Z M43.7431673,18.9982045 L44.8479484,19.1096309 L45.9515441,19.330113 L47.0575106,19.6620215 L48.0508652,20.1029856 L49.4875548,20.6553761 L50.923059,21.3180077 L53.6850117,22.6432709 L55.1205159,23.1968468 L56.5560201,23.748052 L58.1029507,24.1902015 L59.648696,24.5209246 L60.8637181,24.6311656 L61.8582581,24.5209246 L62.8527982,24.1902015 L63.9575793,23.748052 L64.0678203,23.9697194 L64.0678203,24.3004425 L63.7359118,24.8528331 L62.8527982,25.406409 L61.9684992,25.9576141 L60.9751445,26.3985783 L59.8703634,26.6202457 L58.7655823,26.8407278 L57.6619866,26.8407278 L56.5560201,26.7304868 L55.4524244,26.5100047 L53.3531033,25.7371321 L51.2537821,24.8528331 L49.2658874,23.9697194 L47.1677516,22.9751794 L45.0684304,22.2023067 L43.9636494,21.9818247 L42.8588683,21.6499162 L41.7552726,21.5396752 L40.6493061,21.4282487 L39.4354693,21.5396752 L38.2204472,21.6499162 L37.9999651,21.8703983 L37.7782977,21.8703983 L37.5566302,21.4282487 L37.5566302,21.0975256 L37.7782977,20.8758582 L38.1090208,20.6553761 L38.8830788,20.2132266 L39.2149873,19.9927446 L39.4354693,19.7722625 L40.539065,19.440354 L41.6438461,19.1096309 L42.7486272,18.9982045 L43.7431673,18.9982045 Z M32.8067828,7.10542736e-15 L34.4639544,0.330723096 L36.1211261,0.772872611 L37.6680567,1.4343188 L39.1035609,2.2083768 L41.7552726,1.8776537 L44.4057989,1.8776537 L46.9460842,1.98789474 L49.4875548,2.31980322 L50.7013916,2.65052631 L51.9175991,2.98124941 L53.0211948,3.42339893 L54.2374023,3.86554844 L55.340998,4.41793899 L56.3355381,5.08057057 L57.4403192,5.74320214 L58.3234328,6.51726014 L59.9806044,7.95276433 L61.417294,9.60875058 L62.9630392,11.2671076 L64.6202109,12.9230939 L65.3942689,13.6959665 L66.2773825,14.3585981 L67.2719226,14.9109886 L68.2652772,15.3531381 L69.2586319,15.7941022 L70.3645984,16.0169551 L71.5796205,16.0169551 L72.9048837,15.9055287 L73.6777563,16.0169551 L74.5608699,15.9055287 L74.5608699,16.2374371 L74.2301468,16.4579192 L73.7879973,16.6795867 L73.4572742,16.9000687 L71.9103436,17.2307918 L70.3645984,17.5627003 L68.9279088,17.4524593 L67.6026457,17.2307918 L66.3876235,16.9000687 L63.9575793,15.7941022 L62.8527982,15.022415 L60.7546624,13.4754844 L58.6541559,11.7080717 L56.5560201,9.94065907 L55.4524244,9.16778646 L54.3464579,8.39491385 L53.2428622,7.73109688 L52.0278401,7.17870633 L50.3706685,6.51726014 L48.6032558,5.96368421 L46.8358431,5.52272008 L45.0684304,5.1908116 L43.1907767,5.08057057 L41.313123,4.97032953 L39.4354693,4.97032953 L37.5566302,5.08057057 L36.2313671,5.30105263 L33.8013228,6.18535166 L32.5863007,6.73655682 L32.2543922,6.73655682 L32.6965417,5.96368421 L33.2489323,5.1908116 L33.9127493,4.63842105 L34.6844365,4.0860305 L33.6898964,3.53482534 L32.5863007,3.09149044 L31.3712786,2.76076735 L30.1574418,2.65052631 L28.8309933,2.54028528 L27.6159712,2.65052631 L26.4009491,2.98124941 L25.2949826,3.31315789 L23.5287553,4.19745692 L23.6401817,3.75530741 L23.8594784,3.31315789 L24.0811458,2.98124941 L24.4118689,2.65052631 L25.1859269,2.09813577 L25.9587995,1.4343188 L26.7316721,0.993354674 L27.5057301,0.662631579 L28.3888438,0.442149515 L29.1629018,0.220482064 L30.0460154,7.10542736e-15 L32.8067828,7.10542736e-15 Z" id="Combined-Shape" fill="#C83544"></path>
                                    </g>
                                </g>
                            </g>
                        </svg>
